<?xml version="1.0" standalone="no"?>
<!DOCTYPE svg PUBLIC "-//W3C//DTD SVG 20010904//EN"
 "http://www.w3.org/TR/2001/REC-SVG-20010904/DTD/svg10.dtd">
<svg version="1.0" xmlns="http://www.w3.org/2000/svg"
 width="300.000000pt" height="300.000000pt" viewBox="0 0 300.000000 300.000000"
 preserveAspectRatio="xMidYMid meet">
<metadata>
Created by potrace 1.11, written by Peter Selinger 2001-2013
</metadata>
<g transform="translate(0.000000,300.000000) scale(0.100000,-0.100000)"
fill="#000000" stroke="none">
<path d="M0 1500 l0 -1500 1500 0 1500 0 0 1500 0 1500 -1500 0 -1500 0 0
-1500z m1605 886 c55 -25 110 -81 132 -134 18 -44 18 -150 0 -194 -38 -91
-138 -158 -237 -158 -98 0 -199 67 -236 156 -18 43 -18 155 0 198 54 129 214
192 341 132z m-450 -376 l171 -170 174 0 174 0 171 170 171 170 48 0 c41 0 53
-5 82 -34 28 -28 34 -41 34 -77 0 -42 -3 -45 -185 -229 l-185 -186 0 -486 c0
-356 -3 -494 -12 -513 -17 -38 -58 -55 -128 -55 -65 0 -112 18 -126 47 -5 10
-11 117 -14 238 l-5 220 -25 0 -25 0 -5 -220 c-3 -121 -9 -228 -14 -238 -14
-29 -61 -47 -126 -47 -70 0 -111 17 -128 55 -9 19 -12 157 -12 513 l0 486
-185 186 c-182 184 -185 187 -185 229 0 36 6 49 34 77 29 29 41 34 82 34 l48
0 171 -170z"/>
</g>
</svg>
